# xmcd
#
# Track frame offsets: 
#        150
#        19872
#        42644
#        64904
#        82154
#        99452
#        118310
#        137105
#        158110
#        174984
#        197690
#        218164
#        236668
#        254041
#        278958
#        301776
#        322419
#
# Disc length: 4581 seconds
#
# Revision: 0
# Processed by: cddbd v1.4PL0 Copyright (c) Steve Scherf et al.
# Submitted via: ExactAudioCopy v0.90b4
#
DISCID=0711e311
DTITLE=孙楠 - 第一楠主角
DYEAR=2003
DGENRE=Pop
TTITLE0=飞越海洋
TTITLE1=真情真美
TTITLE2=幸福相守
TTITLE3=一生约定
TTITLE4=风雨豪情
TTITLE5=若即若离
TTITLE6=天长地久
TTITLE7=为爱说抱歉
TTITLE8=对视
TTITLE9=动情
TTITLE10=是否爱过我
TTITLE11=我看见了
TTITLE12=让梦冬眠
TTITLE13=拯救
TTITLE14=我爱的 不爱我
TTITLE15=缘分的天空
TTITLE16=乐园
EXTD=
EXTT0=飞越海洋
EXTT1=真情真美
EXTT2=幸福相守
EXTT3=一生约定
EXTT4=风雨豪情
EXTT5=若即若离
EXTT6=天长地久
EXTT7=为爱说抱歉
EXTT8=对视
EXTT9=动情
EXTT10=是否爱过我
EXTT11=我看见了
EXTT12=读梦冬眠
EXTT13=拯救
EXTT14=我爱的不爱我
EXTT15=缘分的天空
EXTT16=乐园
PLAYORDER=
